<mxfile host="app.diagrams.net" agent="Mozilla/5.0 (Windows NT 10.0; Win64; x64) AppleWebKit/537.36 (KHTML, like Gecko) Chrome/130.0.0.0 Safari/537.36" version="24.8.6">
  <diagram id="C5RBs43oDa-KdzZeNtuy" name="Page-1">
    <mxGraphModel dx="2261" dy="746" grid="1" gridSize="10" guides="1" tooltips="1" connect="1" arrows="1" fold="1" page="1" pageScale="1" pageWidth="827" pageHeight="1169" math="0" shadow="0">
      <root>
        <mxCell id="WIyWlLk6GJQsqaUBKTNV-0" />
        <mxCell id="WIyWlLk6GJQsqaUBKTNV-1" parent="WIyWlLk6GJQsqaUBKTNV-0" />
        <mxCell id="OLskAIUBvhhipxVjsS-e-0" value="&lt;b&gt;CLIENTE&lt;/b&gt;" style="rounded=0;whiteSpace=wrap;html=1;" vertex="1" parent="WIyWlLk6GJQsqaUBKTNV-1">
          <mxGeometry x="-199" y="177" width="120" height="60" as="geometry" />
        </mxCell>
        <mxCell id="OLskAIUBvhhipxVjsS-e-1" value="&lt;b&gt;AGENDAMENTO&lt;/b&gt;" style="rounded=0;whiteSpace=wrap;html=1;" vertex="1" parent="WIyWlLk6GJQsqaUBKTNV-1">
          <mxGeometry x="580" y="98.33" width="120" height="60" as="geometry" />
        </mxCell>
        <mxCell id="OLskAIUBvhhipxVjsS-e-2" value="&lt;b&gt;PET&lt;/b&gt;" style="rounded=0;whiteSpace=wrap;html=1;" vertex="1" parent="WIyWlLk6GJQsqaUBKTNV-1">
          <mxGeometry x="182" y="323" width="120" height="60" as="geometry" />
        </mxCell>
        <mxCell id="OLskAIUBvhhipxVjsS-e-4" value="&lt;b&gt;VENDA&lt;/b&gt;" style="rounded=0;whiteSpace=wrap;html=1;" vertex="1" parent="WIyWlLk6GJQsqaUBKTNV-1">
          <mxGeometry x="-206" y="432" width="120" height="60" as="geometry" />
        </mxCell>
        <mxCell id="OLskAIUBvhhipxVjsS-e-5" value="&lt;b&gt;PRODUTO&lt;/b&gt;" style="rounded=0;whiteSpace=wrap;html=1;" vertex="1" parent="WIyWlLk6GJQsqaUBKTNV-1">
          <mxGeometry x="-212.5" y="696" width="120" height="60" as="geometry" />
        </mxCell>
        <mxCell id="OLskAIUBvhhipxVjsS-e-6" value="&lt;b&gt;ESPECIE&lt;/b&gt;" style="rounded=0;whiteSpace=wrap;html=1;" vertex="1" parent="WIyWlLk6GJQsqaUBKTNV-1">
          <mxGeometry x="171" y="591" width="120" height="60" as="geometry" />
        </mxCell>
        <mxCell id="OLskAIUBvhhipxVjsS-e-7" value="&lt;b&gt;SERVIÇO&lt;/b&gt;" style="rounded=0;whiteSpace=wrap;html=1;" vertex="1" parent="WIyWlLk6GJQsqaUBKTNV-1">
          <mxGeometry x="582" y="421" width="120" height="60" as="geometry" />
        </mxCell>
        <mxCell id="OLskAIUBvhhipxVjsS-e-8" value="&lt;b&gt;RAÇA&lt;/b&gt;" style="rounded=0;whiteSpace=wrap;html=1;" vertex="1" parent="WIyWlLk6GJQsqaUBKTNV-1">
          <mxGeometry x="414" y="677.66" width="120" height="60" as="geometry" />
        </mxCell>
        <mxCell id="OLskAIUBvhhipxVjsS-e-9" value="&lt;b&gt;FUNCIONARIO&lt;/b&gt;" style="rounded=0;whiteSpace=wrap;html=1;" vertex="1" parent="WIyWlLk6GJQsqaUBKTNV-1">
          <mxGeometry x="670" y="632" width="120" height="60" as="geometry" />
        </mxCell>
        <mxCell id="OLskAIUBvhhipxVjsS-e-10" value="" style="endArrow=none;html=1;rounded=0;entryX=0.5;entryY=1;entryDx=0;entryDy=0;exitX=0.167;exitY=0;exitDx=0;exitDy=0;exitPerimeter=0;" edge="1" parent="WIyWlLk6GJQsqaUBKTNV-1" source="OLskAIUBvhhipxVjsS-e-0" target="OLskAIUBvhhipxVjsS-e-17">
          <mxGeometry width="50" height="50" relative="1" as="geometry">
            <mxPoint x="-200" y="170" as="sourcePoint" />
            <mxPoint x="-69" y="127" as="targetPoint" />
          </mxGeometry>
        </mxCell>
        <mxCell id="OLskAIUBvhhipxVjsS-e-11" value="" style="endArrow=none;html=1;rounded=0;exitX=0;exitY=0.25;exitDx=0;exitDy=0;entryX=1;entryY=1;entryDx=0;entryDy=0;" edge="1" parent="WIyWlLk6GJQsqaUBKTNV-1" source="OLskAIUBvhhipxVjsS-e-0" target="OLskAIUBvhhipxVjsS-e-16">
          <mxGeometry width="50" height="50" relative="1" as="geometry">
            <mxPoint x="-139" y="177" as="sourcePoint" />
            <mxPoint x="-270" y="130" as="targetPoint" />
          </mxGeometry>
        </mxCell>
        <mxCell id="OLskAIUBvhhipxVjsS-e-12" value="" style="endArrow=none;html=1;rounded=0;exitX=0.976;exitY=0.274;exitDx=0;exitDy=0;exitPerimeter=0;entryX=0.117;entryY=1.017;entryDx=0;entryDy=0;entryPerimeter=0;" edge="1" parent="WIyWlLk6GJQsqaUBKTNV-1" source="OLskAIUBvhhipxVjsS-e-14" target="OLskAIUBvhhipxVjsS-e-0">
          <mxGeometry width="50" height="50" relative="1" as="geometry">
            <mxPoint x="-249" y="157" as="sourcePoint" />
            <mxPoint x="-200" y="230" as="targetPoint" />
          </mxGeometry>
        </mxCell>
        <mxCell id="OLskAIUBvhhipxVjsS-e-13" value="" style="endArrow=none;html=1;rounded=0;exitX=0.963;exitY=0.823;exitDx=0;exitDy=0;exitPerimeter=0;entryX=0;entryY=0.75;entryDx=0;entryDy=0;" edge="1" parent="WIyWlLk6GJQsqaUBKTNV-1" source="OLskAIUBvhhipxVjsS-e-15" target="OLskAIUBvhhipxVjsS-e-0">
          <mxGeometry width="50" height="50" relative="1" as="geometry">
            <mxPoint x="-209" y="107" as="sourcePoint" />
            <mxPoint x="-169" y="177" as="targetPoint" />
          </mxGeometry>
        </mxCell>
        <mxCell id="OLskAIUBvhhipxVjsS-e-14" value="nome&lt;span style=&quot;color: rgba(0, 0, 0, 0); font-family: monospace; font-size: 0px; text-align: start; text-wrap-mode: nowrap;&quot;&gt;%3CmxGraphModel%3E%3Croot%3E%3CmxCell%20id%3D%220%22%2F%3E%3CmxCell%20id%3D%221%22%20parent%3D%220%22%2F%3E%3CmxCell%20id%3D%222%22%20value%3D%22%22%20style%3D%22rounded%3D0%3BwhiteSpace%3Dwrap%3Bhtml%3D1%3B%22%20vertex%3D%221%22%20parent%3D%221%22%3E%3CmxGeometry%20x%3D%22-160%22%20y%3D%22160%22%20width%3D%22120%22%20height%3D%2260%22%20as%3D%22geometry%22%2F%3E%3C%2FmxCell%3E%3C%2Froot%3E%3C%2FmxGraphModel%3E&lt;/span&gt;&lt;span style=&quot;color: rgba(0, 0, 0, 0); font-family: monospace; font-size: 0px; text-align: start; text-wrap-mode: nowrap;&quot;&gt;%3CmxGraphModel%3E%3Croot%3E%3CmxCell%20id%3D%220%22%2F%3E%3CmxCell%20id%3D%221%22%20parent%3D%220%22%2F%3E%3CmxCell%20id%3D%222%22%20value%3D%22%22%20style%3D%22rounded%3D0%3BwhiteSpace%3Dwrap%3Bhtml%3D1%3B%22%20vertex%3D%221%22%20parent%3D%221%22%3E%3CmxGeometry%20x%3D%22-160%22%20y%3D%22160%22%20width%3D%22120%22%20height%3D%2260%22%20as%3D%22geometry%22%2F%3E%3C%2FmxCell%3E%3C%2Froot%3E%3C%2FmxGraphModel%3E&lt;/span&gt;" style="ellipse;whiteSpace=wrap;html=1;" vertex="1" parent="WIyWlLk6GJQsqaUBKTNV-1">
          <mxGeometry x="-320" y="249" width="82" height="54.66" as="geometry" />
        </mxCell>
        <mxCell id="OLskAIUBvhhipxVjsS-e-15" value="endereco" style="ellipse;whiteSpace=wrap;html=1;" vertex="1" parent="WIyWlLk6GJQsqaUBKTNV-1">
          <mxGeometry x="-350" y="174.34" width="82" height="54.66" as="geometry" />
        </mxCell>
        <mxCell id="OLskAIUBvhhipxVjsS-e-16" value="telefone" style="ellipse;whiteSpace=wrap;html=1;" vertex="1" parent="WIyWlLk6GJQsqaUBKTNV-1">
          <mxGeometry x="-340" y="96" width="82" height="54.66" as="geometry" />
        </mxCell>
        <mxCell id="OLskAIUBvhhipxVjsS-e-17" value="data cadastro" style="ellipse;whiteSpace=wrap;html=1;" vertex="1" parent="WIyWlLk6GJQsqaUBKTNV-1">
          <mxGeometry x="-250" y="60" width="83" height="55.33" as="geometry" />
        </mxCell>
        <mxCell id="OLskAIUBvhhipxVjsS-e-18" value="" style="endArrow=none;html=1;rounded=0;exitX=1;exitY=0.683;exitDx=0;exitDy=0;exitPerimeter=0;entryX=0;entryY=0.5;entryDx=0;entryDy=0;" edge="1" parent="WIyWlLk6GJQsqaUBKTNV-1" source="OLskAIUBvhhipxVjsS-e-19" target="OLskAIUBvhhipxVjsS-e-4">
          <mxGeometry width="50" height="50" relative="1" as="geometry">
            <mxPoint x="-269" y="446" as="sourcePoint" />
            <mxPoint x="-199" y="476" as="targetPoint" />
          </mxGeometry>
        </mxCell>
        <mxCell id="OLskAIUBvhhipxVjsS-e-19" value="data venda" style="ellipse;whiteSpace=wrap;html=1;" vertex="1" parent="WIyWlLk6GJQsqaUBKTNV-1">
          <mxGeometry x="-347" y="425" width="82" height="54.66" as="geometry" />
        </mxCell>
        <mxCell id="OLskAIUBvhhipxVjsS-e-65" value="" style="endArrow=none;html=1;rounded=0;exitX=1;exitY=0.327;exitDx=0;exitDy=0;exitPerimeter=0;entryX=0.25;entryY=1;entryDx=0;entryDy=0;" edge="1" parent="WIyWlLk6GJQsqaUBKTNV-1" source="OLskAIUBvhhipxVjsS-e-69" target="OLskAIUBvhhipxVjsS-e-5">
          <mxGeometry width="50" height="50" relative="1" as="geometry">
            <mxPoint x="-272" y="869.33" as="sourcePoint" />
            <mxPoint x="-222" y="819.33" as="targetPoint" />
          </mxGeometry>
        </mxCell>
        <mxCell id="OLskAIUBvhhipxVjsS-e-66" value="" style="endArrow=none;html=1;rounded=0;exitX=1;exitY=0.5;exitDx=0;exitDy=0;entryX=0;entryY=0.5;entryDx=0;entryDy=0;" edge="1" parent="WIyWlLk6GJQsqaUBKTNV-1" source="OLskAIUBvhhipxVjsS-e-67" target="OLskAIUBvhhipxVjsS-e-5">
          <mxGeometry width="50" height="50" relative="1" as="geometry">
            <mxPoint x="-332" y="789.33" as="sourcePoint" />
            <mxPoint x="-222" y="789.33" as="targetPoint" />
          </mxGeometry>
        </mxCell>
        <mxCell id="OLskAIUBvhhipxVjsS-e-67" value="nome" style="ellipse;whiteSpace=wrap;html=1;" vertex="1" parent="WIyWlLk6GJQsqaUBKTNV-1">
          <mxGeometry x="-347" y="696.67" width="89" height="59.33" as="geometry" />
        </mxCell>
        <mxCell id="OLskAIUBvhhipxVjsS-e-69" value="categoria" style="ellipse;whiteSpace=wrap;html=1;" vertex="1" parent="WIyWlLk6GJQsqaUBKTNV-1">
          <mxGeometry x="-288" y="776" width="89" height="59.33" as="geometry" />
        </mxCell>
        <mxCell id="OLskAIUBvhhipxVjsS-e-70" value="preco" style="ellipse;whiteSpace=wrap;html=1;" vertex="1" parent="WIyWlLk6GJQsqaUBKTNV-1">
          <mxGeometry x="-183.25" y="806" width="88.5" height="59" as="geometry" />
        </mxCell>
        <mxCell id="OLskAIUBvhhipxVjsS-e-71" value="" style="endArrow=none;html=1;rounded=0;exitX=0.703;exitY=0;exitDx=0;exitDy=0;exitPerimeter=0;entryX=0.625;entryY=1.083;entryDx=0;entryDy=0;entryPerimeter=0;" edge="1" parent="WIyWlLk6GJQsqaUBKTNV-1" source="OLskAIUBvhhipxVjsS-e-70" target="OLskAIUBvhhipxVjsS-e-5">
          <mxGeometry width="50" height="50" relative="1" as="geometry">
            <mxPoint x="-182" y="869.33" as="sourcePoint" />
            <mxPoint x="-132" y="819.33" as="targetPoint" />
          </mxGeometry>
        </mxCell>
        <mxCell id="OLskAIUBvhhipxVjsS-e-72" value="" style="endArrow=none;html=1;rounded=0;entryX=0.03;entryY=0.401;entryDx=0;entryDy=0;entryPerimeter=0;exitX=0.75;exitY=1;exitDx=0;exitDy=0;" edge="1" parent="WIyWlLk6GJQsqaUBKTNV-1" source="OLskAIUBvhhipxVjsS-e-5" target="OLskAIUBvhhipxVjsS-e-73">
          <mxGeometry width="50" height="50" relative="1" as="geometry">
            <mxPoint x="-112" y="819.33" as="sourcePoint" />
            <mxPoint x="-32" y="899.33" as="targetPoint" />
          </mxGeometry>
        </mxCell>
        <mxCell id="OLskAIUBvhhipxVjsS-e-73" value="quantidade" style="ellipse;whiteSpace=wrap;html=1;" vertex="1" parent="WIyWlLk6GJQsqaUBKTNV-1">
          <mxGeometry x="-70" y="766" width="89" height="59.33" as="geometry" />
        </mxCell>
        <mxCell id="OLskAIUBvhhipxVjsS-e-75" value="Pertence" style="rhombus;whiteSpace=wrap;html=1;" vertex="1" parent="WIyWlLk6GJQsqaUBKTNV-1">
          <mxGeometry x="-181" y="562" width="70" height="70" as="geometry" />
        </mxCell>
        <mxCell id="OLskAIUBvhhipxVjsS-e-76" value="" style="endArrow=none;html=1;rounded=0;entryX=0.5;entryY=1;entryDx=0;entryDy=0;exitX=0.5;exitY=0;exitDx=0;exitDy=0;" edge="1" parent="WIyWlLk6GJQsqaUBKTNV-1" source="OLskAIUBvhhipxVjsS-e-75" target="OLskAIUBvhhipxVjsS-e-4">
          <mxGeometry width="50" height="50" relative="1" as="geometry">
            <mxPoint x="-138.99999999999977" y="585" as="sourcePoint" />
            <mxPoint x="-89" y="505" as="targetPoint" />
          </mxGeometry>
        </mxCell>
        <mxCell id="OLskAIUBvhhipxVjsS-e-77" value="" style="endArrow=none;html=1;rounded=0;entryX=0.5;entryY=1;entryDx=0;entryDy=0;exitX=0.553;exitY=-0.031;exitDx=0;exitDy=0;exitPerimeter=0;" edge="1" parent="WIyWlLk6GJQsqaUBKTNV-1" source="OLskAIUBvhhipxVjsS-e-5" target="OLskAIUBvhhipxVjsS-e-75">
          <mxGeometry width="50" height="50" relative="1" as="geometry">
            <mxPoint x="-146" y="712" as="sourcePoint" />
            <mxPoint x="-132" y="678" as="targetPoint" />
          </mxGeometry>
        </mxCell>
        <mxCell id="OLskAIUBvhhipxVjsS-e-78" value="Possui" style="rhombus;whiteSpace=wrap;html=1;" vertex="1" parent="WIyWlLk6GJQsqaUBKTNV-1">
          <mxGeometry x="-180" y="300" width="68" height="68" as="geometry" />
        </mxCell>
        <mxCell id="OLskAIUBvhhipxVjsS-e-79" value="" style="endArrow=none;html=1;rounded=0;exitX=0.5;exitY=0;exitDx=0;exitDy=0;entryX=0.461;entryY=0.981;entryDx=0;entryDy=0;entryPerimeter=0;" edge="1" parent="WIyWlLk6GJQsqaUBKTNV-1" source="OLskAIUBvhhipxVjsS-e-78" target="OLskAIUBvhhipxVjsS-e-0">
          <mxGeometry width="50" height="50" relative="1" as="geometry">
            <mxPoint x="-180" y="270" as="sourcePoint" />
            <mxPoint x="-130" y="220" as="targetPoint" />
          </mxGeometry>
        </mxCell>
        <mxCell id="OLskAIUBvhhipxVjsS-e-80" value="" style="endArrow=none;html=1;rounded=0;exitX=0.5;exitY=0;exitDx=0;exitDy=0;entryX=0.5;entryY=1;entryDx=0;entryDy=0;" edge="1" parent="WIyWlLk6GJQsqaUBKTNV-1" source="OLskAIUBvhhipxVjsS-e-4" target="OLskAIUBvhhipxVjsS-e-78">
          <mxGeometry width="50" height="50" relative="1" as="geometry">
            <mxPoint x="-190" y="442" as="sourcePoint" />
            <mxPoint x="-140" y="392" as="targetPoint" />
          </mxGeometry>
        </mxCell>
        <mxCell id="OLskAIUBvhhipxVjsS-e-84" value="" style="endArrow=none;html=1;rounded=0;exitX=0.858;exitY=-0.033;exitDx=0;exitDy=0;exitPerimeter=0;" edge="1" parent="WIyWlLk6GJQsqaUBKTNV-1" target="OLskAIUBvhhipxVjsS-e-89" source="OLskAIUBvhhipxVjsS-e-2">
          <mxGeometry width="50" height="50" relative="1" as="geometry">
            <mxPoint x="263" y="328.34000000000003" as="sourcePoint" />
            <mxPoint x="263" y="258.34000000000003" as="targetPoint" />
          </mxGeometry>
        </mxCell>
        <mxCell id="OLskAIUBvhhipxVjsS-e-85" value="" style="endArrow=none;html=1;rounded=0;exitX=1;exitY=1;exitDx=0;exitDy=0;entryX=0.167;entryY=0;entryDx=0;entryDy=0;entryPerimeter=0;" edge="1" parent="WIyWlLk6GJQsqaUBKTNV-1" source="OLskAIUBvhhipxVjsS-e-87" target="OLskAIUBvhhipxVjsS-e-2">
          <mxGeometry width="50" height="50" relative="1" as="geometry">
            <mxPoint x="153" y="308.34000000000003" as="sourcePoint" />
            <mxPoint x="203" y="328.34000000000003" as="targetPoint" />
          </mxGeometry>
        </mxCell>
        <mxCell id="OLskAIUBvhhipxVjsS-e-86" value="" style="endArrow=none;html=1;rounded=0;exitX=0.5;exitY=1;exitDx=0;exitDy=0;entryX=0.5;entryY=0;entryDx=0;entryDy=0;" edge="1" parent="WIyWlLk6GJQsqaUBKTNV-1" source="OLskAIUBvhhipxVjsS-e-88" target="OLskAIUBvhhipxVjsS-e-2">
          <mxGeometry width="50" height="50" relative="1" as="geometry">
            <mxPoint x="193" y="258.34000000000003" as="sourcePoint" />
            <mxPoint x="252" y="313" as="targetPoint" />
          </mxGeometry>
        </mxCell>
        <mxCell id="OLskAIUBvhhipxVjsS-e-87" value="nome&lt;span style=&quot;color: rgba(0, 0, 0, 0); font-family: monospace; font-size: 0px; text-align: start; text-wrap-mode: nowrap;&quot;&gt;%3CmxGraphModel%3E%3Croot%3E%3CmxCell%20id%3D%220%22%2F%3E%3CmxCell%20id%3D%221%22%20parent%3D%220%22%2F%3E%3CmxCell%20id%3D%222%22%20value%3D%22%22%20style%3D%22rounded%3D0%3BwhiteSpace%3Dwrap%3Bhtml%3D1%3B%22%20vertex%3D%221%22%20parent%3D%221%22%3E%3CmxGeometry%20x%3D%22-160%22%20y%3D%22160%22%20width%3D%22120%22%20height%3D%2260%22%20as%3D%22geometry%22%2F%3E%3C%2FmxCell%3E%3C%2Froot%3E%3C%2FmxGraphModel%3E&lt;/span&gt;&lt;span style=&quot;color: rgba(0, 0, 0, 0); font-family: monospace; font-size: 0px; text-align: start; text-wrap-mode: nowrap;&quot;&gt;%3CmxGraphModel%3E%3Croot%3E%3CmxCell%20id%3D%220%22%2F%3E%3CmxCell%20id%3D%221%22%20parent%3D%220%22%2F%3E%3CmxCell%20id%3D%222%22%20value%3D%22%22%20style%3D%22rounded%3D0%3BwhiteSpace%3Dwrap%3Bhtml%3D1%3B%22%20vertex%3D%221%22%20parent%3D%221%22%3E%3CmxGeometry%20x%3D%22-160%22%20y%3D%22160%22%20width%3D%22120%22%20height%3D%2260%22%20as%3D%22geometry%22%2F%3E%3C%2FmxCell%3E%3C%2Froot%3E%3C%2FmxGraphModel%3E&lt;/span&gt;" style="ellipse;whiteSpace=wrap;html=1;" vertex="1" parent="WIyWlLk6GJQsqaUBKTNV-1">
          <mxGeometry x="85" y="222.00000000000003" width="82" height="54.66" as="geometry" />
        </mxCell>
        <mxCell id="OLskAIUBvhhipxVjsS-e-88" value="idade" style="ellipse;whiteSpace=wrap;html=1;" vertex="1" parent="WIyWlLk6GJQsqaUBKTNV-1">
          <mxGeometry x="201" y="192" width="82" height="54.66" as="geometry" />
        </mxCell>
        <mxCell id="OLskAIUBvhhipxVjsS-e-89" value="sexo" style="ellipse;whiteSpace=wrap;html=1;" vertex="1" parent="WIyWlLk6GJQsqaUBKTNV-1">
          <mxGeometry x="302" y="229" width="82" height="54.66" as="geometry" />
        </mxCell>
        <mxCell id="OLskAIUBvhhipxVjsS-e-103" value="nome especie&amp;nbsp;" style="ellipse;whiteSpace=wrap;html=1;" vertex="1" parent="WIyWlLk6GJQsqaUBKTNV-1">
          <mxGeometry x="68" y="502.6699999999999" width="82" height="54.66" as="geometry" />
        </mxCell>
        <mxCell id="OLskAIUBvhhipxVjsS-e-104" value="nome comum" style="ellipse;whiteSpace=wrap;html=1;" vertex="1" parent="WIyWlLk6GJQsqaUBKTNV-1">
          <mxGeometry x="3" y="549.67" width="82" height="54.66" as="geometry" />
        </mxCell>
        <mxCell id="OLskAIUBvhhipxVjsS-e-105" value="alimentação" style="ellipse;whiteSpace=wrap;html=1;" vertex="1" parent="WIyWlLk6GJQsqaUBKTNV-1">
          <mxGeometry x="3" y="620" width="82" height="54.66" as="geometry" />
        </mxCell>
        <mxCell id="OLskAIUBvhhipxVjsS-e-107" value="" style="endArrow=none;html=1;rounded=0;exitX=1.012;exitY=0.677;exitDx=0;exitDy=0;entryX=0;entryY=0.25;entryDx=0;entryDy=0;exitPerimeter=0;" edge="1" parent="WIyWlLk6GJQsqaUBKTNV-1" source="OLskAIUBvhhipxVjsS-e-104" target="OLskAIUBvhhipxVjsS-e-6">
          <mxGeometry width="50" height="50" relative="1" as="geometry">
            <mxPoint x="181" y="701" as="sourcePoint" />
            <mxPoint x="231" y="651" as="targetPoint" />
          </mxGeometry>
        </mxCell>
        <mxCell id="OLskAIUBvhhipxVjsS-e-108" value="" style="endArrow=none;html=1;rounded=0;exitX=1;exitY=1;exitDx=0;exitDy=0;entryX=0.25;entryY=0;entryDx=0;entryDy=0;" edge="1" parent="WIyWlLk6GJQsqaUBKTNV-1" source="OLskAIUBvhhipxVjsS-e-103" target="OLskAIUBvhhipxVjsS-e-6">
          <mxGeometry width="50" height="50" relative="1" as="geometry">
            <mxPoint x="141" y="701" as="sourcePoint" />
            <mxPoint x="150" y="560" as="targetPoint" />
          </mxGeometry>
        </mxCell>
        <mxCell id="OLskAIUBvhhipxVjsS-e-109" value="" style="endArrow=none;html=1;rounded=0;exitX=0.963;exitY=0.354;exitDx=0;exitDy=0;entryX=0;entryY=0.75;entryDx=0;entryDy=0;exitPerimeter=0;" edge="1" parent="WIyWlLk6GJQsqaUBKTNV-1" source="OLskAIUBvhhipxVjsS-e-105" target="OLskAIUBvhhipxVjsS-e-6">
          <mxGeometry width="50" height="50" relative="1" as="geometry">
            <mxPoint x="221" y="701" as="sourcePoint" />
            <mxPoint x="271" y="651" as="targetPoint" />
          </mxGeometry>
        </mxCell>
        <mxCell id="OLskAIUBvhhipxVjsS-e-110" value="Pertence" style="rhombus;whiteSpace=wrap;html=1;" vertex="1" parent="WIyWlLk6GJQsqaUBKTNV-1">
          <mxGeometry x="197" y="449" width="68" height="68" as="geometry" />
        </mxCell>
        <mxCell id="OLskAIUBvhhipxVjsS-e-111" value="" style="endArrow=none;html=1;rounded=0;exitX=0.5;exitY=0;exitDx=0;exitDy=0;" edge="1" parent="WIyWlLk6GJQsqaUBKTNV-1" source="OLskAIUBvhhipxVjsS-e-110">
          <mxGeometry width="50" height="50" relative="1" as="geometry">
            <mxPoint x="270" y="430" as="sourcePoint" />
            <mxPoint x="230" y="380" as="targetPoint" />
          </mxGeometry>
        </mxCell>
        <mxCell id="OLskAIUBvhhipxVjsS-e-112" value="" style="endArrow=none;html=1;rounded=0;entryX=0.5;entryY=1;entryDx=0;entryDy=0;exitX=0.5;exitY=0;exitDx=0;exitDy=0;" edge="1" parent="WIyWlLk6GJQsqaUBKTNV-1" source="OLskAIUBvhhipxVjsS-e-6" target="OLskAIUBvhhipxVjsS-e-110">
          <mxGeometry width="50" height="50" relative="1" as="geometry">
            <mxPoint x="180" y="570" as="sourcePoint" />
            <mxPoint x="230" y="520" as="targetPoint" />
          </mxGeometry>
        </mxCell>
        <mxCell id="OLskAIUBvhhipxVjsS-e-113" value="" style="endArrow=none;html=1;rounded=0;entryX=0;entryY=1;entryDx=0;entryDy=0;exitX=1;exitY=0.75;exitDx=0;exitDy=0;" edge="1" parent="WIyWlLk6GJQsqaUBKTNV-1" source="OLskAIUBvhhipxVjsS-e-1" target="OLskAIUBvhhipxVjsS-e-115">
          <mxGeometry width="50" height="50" relative="1" as="geometry">
            <mxPoint x="651" y="78.33" as="sourcePoint" />
            <mxPoint x="720.9920000000002" y="62.33408000000004" as="targetPoint" />
          </mxGeometry>
        </mxCell>
        <mxCell id="OLskAIUBvhhipxVjsS-e-114" value="data" style="ellipse;whiteSpace=wrap;html=1;" vertex="1" parent="WIyWlLk6GJQsqaUBKTNV-1">
          <mxGeometry x="708" y="30" width="82" height="54.66" as="geometry" />
        </mxCell>
        <mxCell id="OLskAIUBvhhipxVjsS-e-115" value="status" style="ellipse;whiteSpace=wrap;html=1;" vertex="1" parent="WIyWlLk6GJQsqaUBKTNV-1">
          <mxGeometry x="736" y="96" width="82" height="54.66" as="geometry" />
        </mxCell>
        <mxCell id="OLskAIUBvhhipxVjsS-e-117" value="" style="endArrow=none;html=1;rounded=0;exitX=1;exitY=0.25;exitDx=0;exitDy=0;entryX=0.5;entryY=1;entryDx=0;entryDy=0;" edge="1" parent="WIyWlLk6GJQsqaUBKTNV-1" source="OLskAIUBvhhipxVjsS-e-1" target="OLskAIUBvhhipxVjsS-e-114">
          <mxGeometry width="50" height="50" relative="1" as="geometry">
            <mxPoint x="541" y="78.33" as="sourcePoint" />
            <mxPoint x="603" y="53.33" as="targetPoint" />
          </mxGeometry>
        </mxCell>
        <mxCell id="OLskAIUBvhhipxVjsS-e-119" value="Possui" style="rhombus;whiteSpace=wrap;html=1;" vertex="1" parent="WIyWlLk6GJQsqaUBKTNV-1">
          <mxGeometry x="30" y="319" width="68" height="68" as="geometry" />
        </mxCell>
        <mxCell id="OLskAIUBvhhipxVjsS-e-120" value="" style="endArrow=none;html=1;rounded=0;exitX=0.992;exitY=0.55;exitDx=0;exitDy=0;exitPerimeter=0;" edge="1" parent="WIyWlLk6GJQsqaUBKTNV-1" source="OLskAIUBvhhipxVjsS-e-0" target="OLskAIUBvhhipxVjsS-e-119">
          <mxGeometry width="50" height="50" relative="1" as="geometry">
            <mxPoint x="-70" y="207" as="sourcePoint" />
            <mxPoint x="19" y="353" as="targetPoint" />
            <Array as="points">
              <mxPoint y="210" />
              <mxPoint x="-1" y="353" />
            </Array>
          </mxGeometry>
        </mxCell>
        <mxCell id="OLskAIUBvhhipxVjsS-e-123" value="Pertence" style="rhombus;whiteSpace=wrap;html=1;" vertex="1" parent="WIyWlLk6GJQsqaUBKTNV-1">
          <mxGeometry x="365" y="474.66" width="68" height="68" as="geometry" />
        </mxCell>
        <mxCell id="OLskAIUBvhhipxVjsS-e-124" value="" style="endArrow=none;html=1;rounded=0;entryX=0.5;entryY=0;entryDx=0;entryDy=0;exitX=1;exitY=0.75;exitDx=0;exitDy=0;" edge="1" parent="WIyWlLk6GJQsqaUBKTNV-1" source="OLskAIUBvhhipxVjsS-e-2" target="OLskAIUBvhhipxVjsS-e-123">
          <mxGeometry width="50" height="50" relative="1" as="geometry">
            <mxPoint x="310" y="360" as="sourcePoint" />
            <mxPoint x="402" y="460" as="targetPoint" />
            <Array as="points">
              <mxPoint x="400" y="368" />
            </Array>
          </mxGeometry>
        </mxCell>
        <mxCell id="OLskAIUBvhhipxVjsS-e-126" value="" style="endArrow=none;html=1;rounded=0;exitX=1;exitY=0.5;exitDx=0;exitDy=0;entryX=0.558;entryY=0.039;entryDx=0;entryDy=0;entryPerimeter=0;" edge="1" parent="WIyWlLk6GJQsqaUBKTNV-1" source="OLskAIUBvhhipxVjsS-e-123" target="OLskAIUBvhhipxVjsS-e-8">
          <mxGeometry width="50" height="50" relative="1" as="geometry">
            <mxPoint x="440" y="510" as="sourcePoint" />
            <mxPoint x="481" y="670" as="targetPoint" />
            <Array as="points">
              <mxPoint x="480" y="509" />
            </Array>
          </mxGeometry>
        </mxCell>
        <mxCell id="OLskAIUBvhhipxVjsS-e-127" value="Possui" style="rhombus;whiteSpace=wrap;html=1;" vertex="1" parent="WIyWlLk6GJQsqaUBKTNV-1">
          <mxGeometry x="188" y="94.33" width="68" height="68" as="geometry" />
        </mxCell>
        <mxCell id="OLskAIUBvhhipxVjsS-e-128" value="" style="endArrow=none;html=1;rounded=0;exitX=1;exitY=0.5;exitDx=0;exitDy=0;entryX=0;entryY=0.5;entryDx=0;entryDy=0;" edge="1" parent="WIyWlLk6GJQsqaUBKTNV-1" source="OLskAIUBvhhipxVjsS-e-119" target="OLskAIUBvhhipxVjsS-e-2">
          <mxGeometry width="50" height="50" relative="1" as="geometry">
            <mxPoint x="77" y="329" as="sourcePoint" />
            <mxPoint x="87" y="349" as="targetPoint" />
          </mxGeometry>
        </mxCell>
        <mxCell id="OLskAIUBvhhipxVjsS-e-129" value="" style="endArrow=none;html=1;rounded=0;entryX=0;entryY=0.5;entryDx=0;entryDy=0;" edge="1" parent="WIyWlLk6GJQsqaUBKTNV-1">
          <mxGeometry width="50" height="50" relative="1" as="geometry">
            <mxPoint x="-110" y="177" as="sourcePoint" />
            <mxPoint x="189" y="128.32999999999993" as="targetPoint" />
            <Array as="points">
              <mxPoint x="-109" y="128" />
            </Array>
          </mxGeometry>
        </mxCell>
        <mxCell id="OLskAIUBvhhipxVjsS-e-130" value="" style="endArrow=none;html=1;rounded=0;exitX=0.5;exitY=0;exitDx=0;exitDy=0;entryX=0;entryY=0.75;entryDx=0;entryDy=0;" edge="1" parent="WIyWlLk6GJQsqaUBKTNV-1">
          <mxGeometry width="50" height="50" relative="1" as="geometry">
            <mxPoint x="490" y="251.32999999999993" as="sourcePoint" />
            <mxPoint x="580" y="152.33000000000004" as="targetPoint" />
            <Array as="points">
              <mxPoint x="490" y="152" />
            </Array>
          </mxGeometry>
        </mxCell>
        <mxCell id="OLskAIUBvhhipxVjsS-e-134" value="" style="endArrow=none;html=1;rounded=0;exitX=1;exitY=0.5;exitDx=0;exitDy=0;entryX=0;entryY=0.5;entryDx=0;entryDy=0;" edge="1" parent="WIyWlLk6GJQsqaUBKTNV-1" source="OLskAIUBvhhipxVjsS-e-127" target="OLskAIUBvhhipxVjsS-e-1">
          <mxGeometry width="50" height="50" relative="1" as="geometry">
            <mxPoint x="370" y="130" as="sourcePoint" />
            <mxPoint x="420" y="80" as="targetPoint" />
          </mxGeometry>
        </mxCell>
        <mxCell id="OLskAIUBvhhipxVjsS-e-135" value="" style="endArrow=none;html=1;rounded=0;exitX=1;exitY=0.25;exitDx=0;exitDy=0;entryX=0.5;entryY=0.995;entryDx=0;entryDy=0;entryPerimeter=0;" edge="1" parent="WIyWlLk6GJQsqaUBKTNV-1" target="OLskAIUBvhhipxVjsS-e-136">
          <mxGeometry width="50" height="50" relative="1" as="geometry">
            <mxPoint x="302" y="346" as="sourcePoint" />
            <mxPoint x="490" y="318.3299999999999" as="targetPoint" />
            <Array as="points">
              <mxPoint x="490" y="348" />
            </Array>
          </mxGeometry>
        </mxCell>
        <mxCell id="OLskAIUBvhhipxVjsS-e-136" value="Possui" style="rhombus;whiteSpace=wrap;html=1;" vertex="1" parent="WIyWlLk6GJQsqaUBKTNV-1">
          <mxGeometry x="456" y="242.32999999999998" width="68" height="68" as="geometry" />
        </mxCell>
        <mxCell id="OLskAIUBvhhipxVjsS-e-137" value="nome raça" style="ellipse;whiteSpace=wrap;html=1;" vertex="1" parent="WIyWlLk6GJQsqaUBKTNV-1">
          <mxGeometry x="320" y="790.0000000000001" width="82" height="54.66" as="geometry" />
        </mxCell>
        <mxCell id="OLskAIUBvhhipxVjsS-e-138" value="tamanho" style="ellipse;whiteSpace=wrap;html=1;" vertex="1" parent="WIyWlLk6GJQsqaUBKTNV-1">
          <mxGeometry x="402" y="820.32" width="82" height="54.66" as="geometry" />
        </mxCell>
        <mxCell id="OLskAIUBvhhipxVjsS-e-139" value="temperamento" style="ellipse;whiteSpace=wrap;html=1;" vertex="1" parent="WIyWlLk6GJQsqaUBKTNV-1">
          <mxGeometry x="500" y="810.34" width="82" height="54.66" as="geometry" />
        </mxCell>
        <mxCell id="OLskAIUBvhhipxVjsS-e-140" value="expectativa vida" style="ellipse;whiteSpace=wrap;html=1;" vertex="1" parent="WIyWlLk6GJQsqaUBKTNV-1">
          <mxGeometry x="570" y="751.3399999999999" width="82" height="54.66" as="geometry" />
        </mxCell>
        <mxCell id="OLskAIUBvhhipxVjsS-e-141" value="" style="endArrow=none;html=1;rounded=0;exitX=0.707;exitY=0;exitDx=0;exitDy=0;exitPerimeter=0;entryX=0;entryY=1;entryDx=0;entryDy=0;" edge="1" parent="WIyWlLk6GJQsqaUBKTNV-1" source="OLskAIUBvhhipxVjsS-e-137" target="OLskAIUBvhhipxVjsS-e-8">
          <mxGeometry width="50" height="50" relative="1" as="geometry">
            <mxPoint x="370" y="790" as="sourcePoint" />
            <mxPoint x="420" y="740" as="targetPoint" />
          </mxGeometry>
        </mxCell>
        <mxCell id="OLskAIUBvhhipxVjsS-e-142" value="" style="endArrow=none;html=1;rounded=0;exitX=0.5;exitY=0;exitDx=0;exitDy=0;entryX=0.5;entryY=1;entryDx=0;entryDy=0;" edge="1" parent="WIyWlLk6GJQsqaUBKTNV-1" source="OLskAIUBvhhipxVjsS-e-138" target="OLskAIUBvhhipxVjsS-e-8">
          <mxGeometry width="50" height="50" relative="1" as="geometry">
            <mxPoint x="420" y="790" as="sourcePoint" />
            <mxPoint x="470" y="740" as="targetPoint" />
          </mxGeometry>
        </mxCell>
        <mxCell id="OLskAIUBvhhipxVjsS-e-143" value="" style="endArrow=none;html=1;rounded=0;exitX=0.378;exitY=0.037;exitDx=0;exitDy=0;exitPerimeter=0;entryX=0.75;entryY=1;entryDx=0;entryDy=0;" edge="1" parent="WIyWlLk6GJQsqaUBKTNV-1" source="OLskAIUBvhhipxVjsS-e-139" target="OLskAIUBvhhipxVjsS-e-8">
          <mxGeometry width="50" height="50" relative="1" as="geometry">
            <mxPoint x="460" y="800" as="sourcePoint" />
            <mxPoint x="510" y="750" as="targetPoint" />
          </mxGeometry>
        </mxCell>
        <mxCell id="OLskAIUBvhhipxVjsS-e-144" value="" style="endArrow=none;html=1;rounded=0;entryX=0;entryY=0;entryDx=0;entryDy=0;exitX=1;exitY=0.5;exitDx=0;exitDy=0;" edge="1" parent="WIyWlLk6GJQsqaUBKTNV-1" source="OLskAIUBvhhipxVjsS-e-8" target="OLskAIUBvhhipxVjsS-e-140">
          <mxGeometry width="50" height="50" relative="1" as="geometry">
            <mxPoint x="540" y="720" as="sourcePoint" />
            <mxPoint x="590" y="670" as="targetPoint" />
          </mxGeometry>
        </mxCell>
        <mxCell id="OLskAIUBvhhipxVjsS-e-146" value="" style="endArrow=none;html=1;rounded=0;exitX=0.5;exitY=0;exitDx=0;exitDy=0;entryX=0.45;entryY=1.067;entryDx=0;entryDy=0;entryPerimeter=0;" edge="1" parent="WIyWlLk6GJQsqaUBKTNV-1" source="OLskAIUBvhhipxVjsS-e-147" target="OLskAIUBvhhipxVjsS-e-9">
          <mxGeometry width="50" height="50" relative="1" as="geometry">
            <mxPoint x="590" y="620" as="sourcePoint" />
            <mxPoint x="670" y="650" as="targetPoint" />
          </mxGeometry>
        </mxCell>
        <mxCell id="OLskAIUBvhhipxVjsS-e-147" value="nome" style="ellipse;whiteSpace=wrap;html=1;" vertex="1" parent="WIyWlLk6GJQsqaUBKTNV-1">
          <mxGeometry x="679" y="765.66" width="86" height="50.33" as="geometry" />
        </mxCell>
        <mxCell id="OLskAIUBvhhipxVjsS-e-148" value="cargo" style="ellipse;whiteSpace=wrap;html=1;" vertex="1" parent="WIyWlLk6GJQsqaUBKTNV-1">
          <mxGeometry x="770" y="737.66" width="82" height="54.66" as="geometry" />
        </mxCell>
        <mxCell id="OLskAIUBvhhipxVjsS-e-149" value="" style="endArrow=none;html=1;rounded=0;exitX=0.354;exitY=0.055;exitDx=0;exitDy=0;entryX=0.617;entryY=1;entryDx=0;entryDy=0;entryPerimeter=0;exitPerimeter=0;" edge="1" parent="WIyWlLk6GJQsqaUBKTNV-1" source="OLskAIUBvhhipxVjsS-e-148" target="OLskAIUBvhhipxVjsS-e-9">
          <mxGeometry width="50" height="50" relative="1" as="geometry">
            <mxPoint x="670" y="750" as="sourcePoint" />
            <mxPoint x="770" y="700" as="targetPoint" />
          </mxGeometry>
        </mxCell>
        <mxCell id="OLskAIUBvhhipxVjsS-e-152" value="telefone" style="ellipse;whiteSpace=wrap;html=1;" vertex="1" parent="WIyWlLk6GJQsqaUBKTNV-1">
          <mxGeometry x="830" y="677.66" width="82" height="54.66" as="geometry" />
        </mxCell>
        <mxCell id="OLskAIUBvhhipxVjsS-e-153" value="" style="endArrow=none;html=1;rounded=0;exitX=-0.012;exitY=0.329;exitDx=0;exitDy=0;entryX=1;entryY=1;entryDx=0;entryDy=0;exitPerimeter=0;" edge="1" parent="WIyWlLk6GJQsqaUBKTNV-1" source="OLskAIUBvhhipxVjsS-e-152" target="OLskAIUBvhhipxVjsS-e-9">
          <mxGeometry width="50" height="50" relative="1" as="geometry">
            <mxPoint x="763" y="738" as="sourcePoint" />
            <mxPoint x="811" y="681" as="targetPoint" />
          </mxGeometry>
        </mxCell>
        <mxCell id="OLskAIUBvhhipxVjsS-e-154" value="data" style="ellipse;whiteSpace=wrap;html=1;" vertex="1" parent="WIyWlLk6GJQsqaUBKTNV-1">
          <mxGeometry x="818" y="591" width="82" height="54.66" as="geometry" />
        </mxCell>
        <mxCell id="OLskAIUBvhhipxVjsS-e-155" value="" style="endArrow=none;html=1;rounded=0;exitX=0.366;exitY=0.97;exitDx=0;exitDy=0;entryX=1;entryY=0.5;entryDx=0;entryDy=0;exitPerimeter=0;" edge="1" parent="WIyWlLk6GJQsqaUBKTNV-1" source="OLskAIUBvhhipxVjsS-e-154" target="OLskAIUBvhhipxVjsS-e-9">
          <mxGeometry width="50" height="50" relative="1" as="geometry">
            <mxPoint x="690" y="770" as="sourcePoint" />
            <mxPoint x="738" y="713" as="targetPoint" />
          </mxGeometry>
        </mxCell>
        <mxCell id="OLskAIUBvhhipxVjsS-e-156" value="" style="endArrow=none;html=1;rounded=0;entryX=0.5;entryY=1;entryDx=0;entryDy=0;exitX=0.5;exitY=0;exitDx=0;exitDy=0;" edge="1" parent="WIyWlLk6GJQsqaUBKTNV-1" source="OLskAIUBvhhipxVjsS-e-157" target="OLskAIUBvhhipxVjsS-e-1">
          <mxGeometry width="50" height="50" relative="1" as="geometry">
            <mxPoint x="640" y="280" as="sourcePoint" />
            <mxPoint x="720" y="290" as="targetPoint" />
          </mxGeometry>
        </mxCell>
        <mxCell id="OLskAIUBvhhipxVjsS-e-157" value="Possui" style="rhombus;whiteSpace=wrap;html=1;" vertex="1" parent="WIyWlLk6GJQsqaUBKTNV-1">
          <mxGeometry x="606" y="256.65999999999997" width="68" height="68" as="geometry" />
        </mxCell>
        <mxCell id="OLskAIUBvhhipxVjsS-e-158" value="" style="endArrow=none;html=1;rounded=0;entryX=0.5;entryY=1;entryDx=0;entryDy=0;exitX=0.5;exitY=0;exitDx=0;exitDy=0;" edge="1" parent="WIyWlLk6GJQsqaUBKTNV-1" source="OLskAIUBvhhipxVjsS-e-7" target="OLskAIUBvhhipxVjsS-e-157">
          <mxGeometry width="50" height="50" relative="1" as="geometry">
            <mxPoint x="610" y="413" as="sourcePoint" />
            <mxPoint x="660" y="363" as="targetPoint" />
          </mxGeometry>
        </mxCell>
        <mxCell id="OLskAIUBvhhipxVjsS-e-159" value="Realiza" style="rhombus;whiteSpace=wrap;html=1;" vertex="1" parent="WIyWlLk6GJQsqaUBKTNV-1">
          <mxGeometry x="729" y="495.99999999999994" width="68" height="68" as="geometry" />
        </mxCell>
        <mxCell id="OLskAIUBvhhipxVjsS-e-160" value="" style="endArrow=none;html=1;rounded=0;exitX=0;exitY=0.5;exitDx=0;exitDy=0;entryX=0.5;entryY=1;entryDx=0;entryDy=0;" edge="1" parent="WIyWlLk6GJQsqaUBKTNV-1" source="OLskAIUBvhhipxVjsS-e-159" target="OLskAIUBvhhipxVjsS-e-7">
          <mxGeometry width="50" height="50" relative="1" as="geometry">
            <mxPoint x="600" y="530" as="sourcePoint" />
            <mxPoint x="650" y="480" as="targetPoint" />
            <Array as="points">
              <mxPoint x="642" y="530" />
            </Array>
          </mxGeometry>
        </mxCell>
        <mxCell id="OLskAIUBvhhipxVjsS-e-161" value="" style="endArrow=none;html=1;rounded=0;entryX=0.5;entryY=1;entryDx=0;entryDy=0;" edge="1" parent="WIyWlLk6GJQsqaUBKTNV-1" target="OLskAIUBvhhipxVjsS-e-159">
          <mxGeometry width="50" height="50" relative="1" as="geometry">
            <mxPoint x="763" y="630" as="sourcePoint" />
            <mxPoint x="752.0279999999998" y="559.0160000000001" as="targetPoint" />
          </mxGeometry>
        </mxCell>
        <mxCell id="OLskAIUBvhhipxVjsS-e-163" value="&lt;b&gt;1&lt;/b&gt;" style="text;html=1;align=center;verticalAlign=middle;resizable=0;points=[];autosize=1;strokeColor=none;fillColor=none;" vertex="1" parent="WIyWlLk6GJQsqaUBKTNV-1">
          <mxGeometry x="-105" y="148" width="30" height="30" as="geometry" />
        </mxCell>
        <mxCell id="OLskAIUBvhhipxVjsS-e-164" value="&lt;b&gt;N&lt;/b&gt;" style="text;html=1;align=center;verticalAlign=middle;resizable=0;points=[];autosize=1;strokeColor=none;fillColor=none;" vertex="1" parent="WIyWlLk6GJQsqaUBKTNV-1">
          <mxGeometry x="540" y="96" width="30" height="30" as="geometry" />
        </mxCell>
        <mxCell id="OLskAIUBvhhipxVjsS-e-165" value="&lt;b&gt;1&lt;/b&gt;" style="text;html=1;align=center;verticalAlign=middle;resizable=0;points=[];autosize=1;strokeColor=none;fillColor=none;" vertex="1" parent="WIyWlLk6GJQsqaUBKTNV-1">
          <mxGeometry x="-79" y="212.32999999999998" width="30" height="30" as="geometry" />
        </mxCell>
        <mxCell id="OLskAIUBvhhipxVjsS-e-166" value="&lt;b&gt;N&lt;/b&gt;" style="text;html=1;align=center;verticalAlign=middle;resizable=0;points=[];autosize=1;strokeColor=none;fillColor=none;" vertex="1" parent="WIyWlLk6GJQsqaUBKTNV-1">
          <mxGeometry x="150" y="354" width="30" height="30" as="geometry" />
        </mxCell>
        <mxCell id="OLskAIUBvhhipxVjsS-e-168" value="&lt;b&gt;N&lt;/b&gt;" style="text;html=1;align=center;verticalAlign=middle;resizable=0;points=[];autosize=1;strokeColor=none;fillColor=none;" vertex="1" parent="WIyWlLk6GJQsqaUBKTNV-1">
          <mxGeometry x="-147" y="400" width="30" height="30" as="geometry" />
        </mxCell>
        <mxCell id="OLskAIUBvhhipxVjsS-e-169" value="&lt;b&gt;1&lt;/b&gt;" style="text;html=1;align=center;verticalAlign=middle;resizable=0;points=[];autosize=1;strokeColor=none;fillColor=none;" vertex="1" parent="WIyWlLk6GJQsqaUBKTNV-1">
          <mxGeometry x="-141" y="236.99999999999997" width="30" height="30" as="geometry" />
        </mxCell>
        <mxCell id="OLskAIUBvhhipxVjsS-e-170" value="&lt;b&gt;1&lt;/b&gt;" style="text;html=1;align=center;verticalAlign=middle;resizable=0;points=[];autosize=1;strokeColor=none;fillColor=none;" vertex="1" parent="WIyWlLk6GJQsqaUBKTNV-1">
          <mxGeometry x="-147" y="666" width="30" height="30" as="geometry" />
        </mxCell>
        <mxCell id="OLskAIUBvhhipxVjsS-e-171" value="&lt;b&gt;N&lt;/b&gt;" style="text;html=1;align=center;verticalAlign=middle;resizable=0;points=[];autosize=1;strokeColor=none;fillColor=none;" vertex="1" parent="WIyWlLk6GJQsqaUBKTNV-1">
          <mxGeometry x="-142" y="493.65999999999997" width="30" height="30" as="geometry" />
        </mxCell>
        <mxCell id="OLskAIUBvhhipxVjsS-e-172" value="&lt;b&gt;1&lt;/b&gt;" style="text;html=1;align=center;verticalAlign=middle;resizable=0;points=[];autosize=1;strokeColor=none;fillColor=none;" vertex="1" parent="WIyWlLk6GJQsqaUBKTNV-1">
          <mxGeometry x="235" y="562" width="30" height="30" as="geometry" />
        </mxCell>
        <mxCell id="OLskAIUBvhhipxVjsS-e-173" value="&lt;b&gt;N&lt;/b&gt;" style="text;html=1;align=center;verticalAlign=middle;resizable=0;points=[];autosize=1;strokeColor=none;fillColor=none;" vertex="1" parent="WIyWlLk6GJQsqaUBKTNV-1">
          <mxGeometry x="235" y="387" width="30" height="30" as="geometry" />
        </mxCell>
        <mxCell id="OLskAIUBvhhipxVjsS-e-174" value="Pertence" style="rhombus;whiteSpace=wrap;html=1;" vertex="1" parent="WIyWlLk6GJQsqaUBKTNV-1">
          <mxGeometry x="197" y="722" width="68" height="68" as="geometry" />
        </mxCell>
        <mxCell id="OLskAIUBvhhipxVjsS-e-175" value="" style="endArrow=none;html=1;rounded=0;exitX=0.5;exitY=0;exitDx=0;exitDy=0;entryX=0.5;entryY=1;entryDx=0;entryDy=0;" edge="1" parent="WIyWlLk6GJQsqaUBKTNV-1" source="OLskAIUBvhhipxVjsS-e-174" target="OLskAIUBvhhipxVjsS-e-6">
          <mxGeometry width="50" height="50" relative="1" as="geometry">
            <mxPoint x="180" y="720" as="sourcePoint" />
            <mxPoint x="230" y="670" as="targetPoint" />
          </mxGeometry>
        </mxCell>
        <mxCell id="OLskAIUBvhhipxVjsS-e-176" value="" style="endArrow=none;html=1;rounded=0;entryX=0.008;entryY=0.406;entryDx=0;entryDy=0;entryPerimeter=0;exitX=1;exitY=0.5;exitDx=0;exitDy=0;" edge="1" parent="WIyWlLk6GJQsqaUBKTNV-1" source="OLskAIUBvhhipxVjsS-e-174" target="OLskAIUBvhhipxVjsS-e-8">
          <mxGeometry width="50" height="50" relative="1" as="geometry">
            <mxPoint x="330" y="720" as="sourcePoint" />
            <mxPoint x="380" y="670" as="targetPoint" />
            <Array as="points">
              <mxPoint x="300" y="756" />
              <mxPoint x="300" y="700" />
            </Array>
          </mxGeometry>
        </mxCell>
        <mxCell id="OLskAIUBvhhipxVjsS-e-178" value="&lt;b&gt;1&lt;/b&gt;" style="text;html=1;align=center;verticalAlign=middle;resizable=0;points=[];autosize=1;strokeColor=none;fillColor=none;" vertex="1" parent="WIyWlLk6GJQsqaUBKTNV-1">
          <mxGeometry x="227" y="651" width="30" height="30" as="geometry" />
        </mxCell>
        <mxCell id="OLskAIUBvhhipxVjsS-e-179" value="&lt;b&gt;N&lt;/b&gt;" style="text;html=1;align=center;verticalAlign=middle;resizable=0;points=[];autosize=1;strokeColor=none;fillColor=none;" vertex="1" parent="WIyWlLk6GJQsqaUBKTNV-1">
          <mxGeometry x="384" y="674.6600000000001" width="30" height="30" as="geometry" />
        </mxCell>
        <mxCell id="OLskAIUBvhhipxVjsS-e-180" value="&lt;b&gt;N&lt;/b&gt;" style="text;html=1;align=center;verticalAlign=middle;resizable=0;points=[];autosize=1;strokeColor=none;fillColor=none;" vertex="1" parent="WIyWlLk6GJQsqaUBKTNV-1">
          <mxGeometry x="644" y="481" width="30" height="30" as="geometry" />
        </mxCell>
        <mxCell id="OLskAIUBvhhipxVjsS-e-181" value="&lt;b&gt;1&lt;/b&gt;" style="text;html=1;align=center;verticalAlign=middle;resizable=0;points=[];autosize=1;strokeColor=none;fillColor=none;" vertex="1" parent="WIyWlLk6GJQsqaUBKTNV-1">
          <mxGeometry x="734" y="604.33" width="30" height="30" as="geometry" />
        </mxCell>
        <mxCell id="OLskAIUBvhhipxVjsS-e-182" value="&lt;b&gt;1&lt;/b&gt;" style="text;html=1;align=center;verticalAlign=middle;resizable=0;points=[];autosize=1;strokeColor=none;fillColor=none;" vertex="1" parent="WIyWlLk6GJQsqaUBKTNV-1">
          <mxGeometry x="644" y="391" width="30" height="30" as="geometry" />
        </mxCell>
        <mxCell id="OLskAIUBvhhipxVjsS-e-184" value="&lt;b&gt;N&lt;/b&gt;" style="text;html=1;align=center;verticalAlign=middle;resizable=0;points=[];autosize=1;strokeColor=none;fillColor=none;" vertex="1" parent="WIyWlLk6GJQsqaUBKTNV-1">
          <mxGeometry x="640" y="162" width="30" height="30" as="geometry" />
        </mxCell>
        <mxCell id="OLskAIUBvhhipxVjsS-e-185" value="&lt;b&gt;N&lt;/b&gt;" style="text;html=1;align=center;verticalAlign=middle;resizable=0;points=[];autosize=1;strokeColor=none;fillColor=none;" vertex="1" parent="WIyWlLk6GJQsqaUBKTNV-1">
          <mxGeometry x="552" y="150.66" width="30" height="30" as="geometry" />
        </mxCell>
        <mxCell id="OLskAIUBvhhipxVjsS-e-186" value="&lt;b&gt;1&lt;/b&gt;" style="text;html=1;align=center;verticalAlign=middle;resizable=0;points=[];autosize=1;strokeColor=none;fillColor=none;" vertex="1" parent="WIyWlLk6GJQsqaUBKTNV-1">
          <mxGeometry x="302" y="319" width="30" height="30" as="geometry" />
        </mxCell>
        <mxCell id="OLskAIUBvhhipxVjsS-e-187" value="&lt;b&gt;1&lt;/b&gt;" style="text;html=1;align=center;verticalAlign=middle;resizable=0;points=[];autosize=1;strokeColor=none;fillColor=none;" vertex="1" parent="WIyWlLk6GJQsqaUBKTNV-1">
          <mxGeometry x="440" y="644.66" width="30" height="30" as="geometry" />
        </mxCell>
        <mxCell id="OLskAIUBvhhipxVjsS-e-188" value="&lt;b&gt;N&lt;/b&gt;" style="text;html=1;align=center;verticalAlign=middle;resizable=0;points=[];autosize=1;strokeColor=none;fillColor=none;" vertex="1" parent="WIyWlLk6GJQsqaUBKTNV-1">
          <mxGeometry x="302" y="370" width="30" height="30" as="geometry" />
        </mxCell>
      </root>
    </mxGraphModel>
  </diagram>
</mxfile>
